<svg width="45" height="35" viewBox="0 0 45 35" fill="none" xmlns="http://www.w3.org/2000/svg">
<path d="M36.1333 21.0911C36.8271 21.0911 37.3979 20.5224 37.3979 19.8266C37.3979 19.1328 36.8271 18.5641 36.1333 18.5641C35.4375 18.5641 34.8688 19.1328 34.8688 19.8266C34.8688 20.5224 35.4375 21.0911 36.1333 21.0911ZM36.1333 21.4891C37.0479 21.4891 37.7958 20.7411 37.7958 19.8266C37.7958 18.9141 37.0479 18.1661 36.1333 18.1661C35.2188 18.1661 34.4771 18.9141 34.4771 19.8266C34.4771 20.7411 35.2188 21.4891 36.1333 21.4891ZM33.2604 24.0745C33.9542 24.0745 34.5188 23.5099 34.5188 22.8099C34.5188 22.1161 33.9542 21.5516 33.2604 21.5516C32.5646 21.5516 31.9958 22.1161 31.9958 22.8099C31.9958 23.5099 32.5646 24.0745 33.2604 24.0745ZM33.2604 24.4703C34.175 24.4703 34.9167 23.7245 34.9167 22.8099C34.9167 21.9016 34.175 21.1536 33.2604 21.1536C32.3458 21.1536 31.5979 21.9016 31.5979 22.8099C31.5979 23.7245 32.3458 24.4703 33.2604 24.4703ZM19.9896 24.9557C20.6833 24.9557 21.2479 24.3932 21.2479 23.6974C21.2479 23.0036 20.6833 22.4349 19.9896 22.4349C19.2938 22.4349 18.725 23.0036 18.725 23.6974C18.725 24.3932 19.2938 24.9557 19.9896 24.9557ZM19.9896 25.3536C20.9042 25.3536 21.6458 24.612 21.6458 23.6974C21.6458 22.7828 20.9042 22.037 19.9896 22.037C19.075 22.037 18.3271 22.7828 18.3271 23.6974C18.3271 24.612 19.075 25.3536 19.9896 25.3536ZM14.2375 22.7474C14.9313 22.7474 15.5021 22.1828 15.5021 21.4828C15.5021 20.7891 14.9313 20.2245 14.2375 20.2245C13.5417 20.2245 12.9729 20.7891 12.9729 21.4828C12.9729 22.1828 13.5417 22.7474 14.2375 22.7474ZM14.2375 23.1453C15.1521 23.1453 15.8979 22.3974 15.8979 21.4828C15.8979 20.5745 15.1521 19.8266 14.2375 19.8266C13.3229 19.8266 12.5813 20.5745 12.5813 21.4828C12.5813 22.3974 13.3229 23.1453 14.2375 23.1453ZM9.14792 21.2016C9.84792 21.2016 10.4125 20.6328 10.4125 19.937C10.4125 19.2432 9.84792 18.6745 9.14792 18.6745C8.45417 18.6745 7.88958 19.2432 7.88958 19.937C7.88958 20.6328 8.45417 21.2016 9.14792 21.2016ZM9.14792 21.5974C10.0625 21.5974 10.8104 20.8516 10.8104 19.937C10.8104 19.0224 10.0625 18.2828 9.14792 18.2828C8.23958 18.2828 7.49167 19.0224 7.49167 19.937C7.49167 20.8516 8.23958 21.5974 9.14792 21.5974ZM18.5521 16.7766C19.2479 16.7766 19.8125 16.2141 19.8125 15.5141C19.8125 14.8182 19.2479 14.2557 18.5521 14.2557C17.8521 14.2557 17.2875 14.8182 17.2875 15.5141C17.2875 16.2141 17.8521 16.7766 18.5521 16.7766ZM18.5521 17.1745C19.4667 17.1745 20.2083 16.4286 20.2083 15.5141C20.2083 14.6057 19.4667 13.8578 18.5521 13.8578C17.6375 13.8578 16.8917 14.6057 16.8917 15.5141C16.8917 16.4286 17.6375 17.1745 18.5521 17.1745ZM28.0604 19.212C28.7563 19.212 29.325 18.6411 29.325 17.9474C29.325 17.2536 28.7563 16.6828 28.0604 16.6828C27.3667 16.6828 26.7979 17.2536 26.7979 17.9474C26.7979 18.6411 27.3667 19.212 28.0604 19.212ZM28.0604 19.6078C28.975 19.6078 29.7229 18.862 29.7229 17.9474C29.7229 17.0328 28.975 16.2911 28.0604 16.2911C27.1479 16.2911 26.4 17.0328 26.4 17.9474C26.4 18.862 27.1479 19.6078 28.0604 19.6078ZM36.2417 12.9682C37.2125 12.9682 38.0063 12.1745 38.0063 11.2057C38.0063 10.2349 37.2125 9.44115 36.2417 9.44115C35.2708 9.44115 34.4833 10.2349 34.4833 11.2057C34.4833 12.1745 35.2708 12.9682 36.2417 12.9682ZM44.1958 20.8766C44.1396 20.2974 43.8042 19.3911 43.6146 18.9495C43.5313 18.7411 43.5313 18.6495 43.5563 18.5016C43.5604 18.462 43.5688 18.4099 43.5729 18.3349C43.5771 18.2932 43.5771 18.2516 43.5771 18.212L33.4188 22.937L32.7271 26.1703C32.8563 26.2432 32.9917 26.3745 33.1479 26.5286C33.2667 26.6432 33.3875 26.762 33.4813 26.8286C34.2167 27.3661 34.4646 27.5474 35.2854 27.8745C35.3375 27.8932 35.3771 27.9182 35.4062 27.9349C35.4354 27.9516 35.45 27.9599 35.4875 27.9724L36.2375 28.1891C37.0854 28.387 38.0146 28.3995 38.8375 28.2224L38.8708 28.2141C39.1833 28.1516 39.4313 28.1016 39.7167 27.9974C39.7792 27.9724 39.8479 27.9495 39.9146 27.9266C39.9833 27.9016 40.0521 27.8786 40.1167 27.8536L40.1583 27.837C40.2229 27.8141 40.2521 27.8036 40.3125 27.7766C40.7 27.6099 41.0917 27.3891 41.425 27.1516L41.5 27.0974C42.2167 26.5724 43.125 25.6786 43.5271 24.7391C43.5667 24.6432 43.6146 24.5474 43.6625 24.4516C43.7271 24.3224 43.7896 24.2016 43.8333 24.0745C43.9896 23.5932 44.0958 23.1516 44.1604 22.7286C44.2521 22.1099 44.2604 21.5724 44.1958 20.8766ZM33.0458 22.9391L21.8604 19.8266L20.2458 23.5661L32.3521 26.1536C32.3542 26.1536 32.3563 26.1516 32.3583 26.1516L33.0458 22.9391ZM32.15 26.4849L20.1417 23.9182L19.5271 28.087C19.6833 28.1953 19.8333 28.3953 20.0167 28.6557C20.0583 28.7141 20.0938 28.7661 20.1229 28.8016C20.4646 29.2411 20.9896 29.7141 21.4938 30.0391L22.3771 30.5495C22.8958 30.8516 23.6167 31.0724 24.5146 31.2057C25.8 31.4016 27.2417 31.1703 28.5729 30.5536C29.1396 30.2932 29.7375 29.8891 30.2563 29.412C30.5896 29.112 30.8521 28.8161 31.1146 28.4495C31.4125 28.0453 31.6333 27.7099 31.825 27.287C31.8521 27.2307 31.8708 27.1932 31.8917 27.1599C31.9042 27.137 31.9167 27.1161 31.9292 27.0807C31.9375 27.0641 31.9521 27.0224 31.9708 26.9661C32.0479 26.7516 32.1042 26.5974 32.15 26.4849ZM19.7875 23.8161L14.0625 21.612L13.8521 18.2141L9.32708 20.062L9.00833 31.5432L10.8167 28.8307L19.1 28.1036C19.1208 28.087 19.1396 28.0724 19.1625 28.0557L19.7875 23.8161ZM18.8167 28.4953L11.0229 29.1786L9.08958 32.0849C10.5063 33.4995 11.925 33.9786 13.2021 33.4641C14.3896 32.9849 15.1813 31.7036 15.1833 31.0661V30.9807L15.2333 30.912C15.3979 30.6911 15.4729 30.5599 15.5188 30.4807C15.6354 30.2807 15.7063 30.2328 15.9375 30.2016C16.0208 30.1911 16.1458 30.1724 16.3563 30.1245C16.9354 29.987 17.4708 29.7391 17.9021 29.4078C17.9396 29.3807 17.9708 29.3557 18.0021 29.3349C18.0417 29.3057 18.0771 29.2807 18.1146 29.2453C18.4125 28.9745 18.6313 28.737 18.8167 28.4953ZM8.96042 20.1266L2.40208 20.3391C2.34583 20.4224 2.28125 20.4911 2.20625 20.5661C2.02292 20.7557 1.74583 21.0391 1.36042 21.8786C1.09167 22.4745 0.970834 23.4599 1.08333 24.1245C1.14167 24.4599 1.21875 24.7057 1.31458 25.0161L1.34167 25.1036C1.40833 25.3141 1.6125 25.6807 1.76042 25.8849L2.54792 26.7786C2.63958 26.862 2.71875 26.9161 2.78958 26.9682C2.95 27.0828 3.13542 27.212 3.13542 27.5203C3.11875 28.4432 3.33333 29.2974 3.74167 29.9286L4.30417 30.6828C4.60417 31.0099 5.19375 31.4745 5.6375 31.6557C6.36458 31.9495 7.46458 32.1849 8.15208 32.0057L8.23958 31.9807C8.35833 31.9474 8.4875 31.9099 8.63333 31.9036L8.96042 20.1266ZM2 19.5661C2.01875 19.5807 2.05 19.5953 2.08125 19.612C2.1625 19.6516 2.26042 19.7016 2.33958 19.7745L10.3313 11.9682L2.60208 13.6974L2.58333 13.7203C2.53125 13.787 2.47917 13.8224 2.43958 13.8474C2.42917 13.8536 2.41875 13.862 2.40417 13.8703L2.37917 13.887C2.34792 13.9057 2.325 13.9161 2.30625 13.9266C2.27083 13.9432 2.26667 13.9474 2.22917 13.9766C2.15208 14.0391 2.08542 14.1036 2.03125 14.1641L2.00625 14.1932L1.97292 14.2141C1.06458 14.787 0.522917 15.7682 0.522917 16.8391C0.522917 17.7578 0.922917 18.6224 1.62083 19.2099L1.65417 19.2432C1.75625 19.3682 1.875 19.4807 2 19.5661ZM2.62708 13.3161L10.7354 11.5016L10.7271 3.94115C10.4563 3.92031 10.1875 4.0099 9.97917 4.19323L9.8875 4.25573L9.83125 4.26615C8.73542 4.4349 7.80625 5.19531 7.40833 6.2474L7.38542 6.30781L7.33542 6.34948C7.02917 6.61823 6.77083 6.95781 6.56458 7.3599C6.54375 7.39948 6.52708 7.43281 6.51458 7.46823L6.47917 7.56198L6.38958 7.60781C5.6125 8.01198 4.86875 8.61823 4.24375 9.36198C3.19375 10.6099 2.6 12.0703 2.62708 13.3161ZM2.66875 19.9641L9.11042 19.7557L13.9396 17.7828L18.1562 15.5182L10.9542 11.8703L2.66875 19.9641ZM17.9396 16.0516L14.2083 18.0536L14.3875 20.962L17.9396 16.0516ZM14.525 21.3974L19.8917 23.4641L21.5438 19.6349L18.5583 15.8182L14.525 21.3974ZM18.1271 8.95573C18.0417 9.04323 17.9667 9.14115 17.9042 9.24531L11.0917 4.06823L11.1021 11.4286L17.6708 10.2182C17.6792 10.3411 17.7 10.462 17.7354 10.5766L11.4854 11.7307L18.4083 15.2349L18.9125 11.7036C19.0292 11.7349 19.15 11.7516 19.2729 11.7557L18.7438 15.462L21.825 19.4016L27.6875 17.8578L20.4271 11.3328C20.5188 11.2516 20.6 11.1599 20.6708 11.062L27.9729 17.6224L29.8271 11.7266C29.9375 11.7745 30.0542 11.812 30.175 11.837L28.4208 17.4141L34.8563 12.1099C34.9229 12.2141 35.0021 12.3078 35.0896 12.3932L28.4625 17.8536L36.0104 19.612L39.3479 9.33281L37.7125 10.4349C37.6563 10.3266 37.5875 10.2245 37.5083 10.1328L39.4208 8.84323C39.3813 7.42656 38.1479 5.80156 36.3354 4.78281C35.1313 4.10781 33.8229 3.7849 32.6938 3.87031L35.6542 9.65365C35.5396 9.6974 35.4313 9.75365 35.3292 9.82031L32.4208 4.13698L31.1229 8.67656C31.0125 8.63073 30.8938 8.5974 30.7729 8.57656L32.1438 3.77448L32.1313 3.74323C31.9021 3.20156 31.5208 2.7349 31.0313 2.39323C30.1458 1.7849 29.0042 1.68073 28.0188 2.10781L30.1542 8.58698C30.0333 8.61198 29.9167 8.65156 29.8083 8.70365L27.6854 2.26823L20.6354 9.08698C20.5604 8.98906 20.475 8.89948 20.3813 8.8224L27.4625 1.97656C27.2917 1.77865 27.0979 1.60365 26.8875 1.46198C25.9042 0.78073 24.6438 0.718229 23.5958 1.30156L23.5167 1.34531L23.3208 1.31198L23.2646 1.26198C23.1938 1.19948 23.1167 1.14115 23.0125 1.06406C21.9417 0.328646 20.5042 0.341146 19.4417 1.0974L19.3896 1.13281L19.3271 1.14323C19.2083 1.1599 19.1083 1.17865 19.0104 1.20573C18.8896 1.2349 18.8083 1.25781 18.75 1.27448L19.3667 8.44323C19.3521 8.44323 19.3396 8.44115 19.325 8.44115C19.2146 8.44115 19.1063 8.45365 19.0021 8.47448L18.3833 1.28906C17.3313 0.986979 16.0688 1.00365 14.8125 1.34531C13.2354 1.77448 11.9063 2.64948 11.2167 3.70365L18.1271 8.95573ZM35.7792 19.9328L28.1854 18.1641L28.15 18.2724L28.0125 18.1495L22.4542 19.6141L33.2042 22.6057L35.7792 19.9328ZM34.0729 22.2307L42.0083 18.537L36.2292 19.9911L34.0729 22.2307ZM39.7833 9.17865L36.4104 19.5703L43.6042 17.7599C44.1396 16.4057 43.6792 14.8891 42.4792 14.062C42.3771 13.987 42.2688 13.9203 42.1313 13.8495L42.0854 13.8266L42.0167 13.7453C42.0042 13.7286 41.9896 13.7099 41.9729 13.6932L41.8479 13.5682L41.9167 13.4057C42.4896 12.0557 42.0271 10.4724 40.8188 9.63906C40.5 9.41823 40.1521 9.26615 39.7833 9.17865ZM44.6771 22.8057C44.6083 23.2599 44.4958 23.7266 44.3292 24.2391C44.2729 24.4036 44.2 24.5474 44.1292 24.687C44.0854 24.7724 44.0438 24.8557 44.0083 24.9432C43.6313 25.8245 42.8083 26.787 41.8104 27.5182L41.7313 27.5745C41.3667 27.8349 40.9375 28.0745 40.525 28.2516C40.4563 28.2849 40.4208 28.2974 40.3375 28.3286L40.3042 28.3411C40.2375 28.3682 40.1604 28.3932 40.0854 28.4203C40.0229 28.4411 39.9604 28.462 39.9 28.4849C39.5729 28.6057 39.2958 28.662 38.975 28.7266L38.9438 28.7328C38.05 28.9245 37.0417 28.912 36.1063 28.6953L35.3354 28.4724C35.2333 28.4391 35.1792 28.4078 35.1396 28.3849C35.1271 28.3766 35.1146 28.3682 35.0958 28.3599C34.2083 28.0078 33.9062 27.787 33.1729 27.2516C33.0521 27.162 32.9146 27.0307 32.7833 26.9016C32.7333 26.8536 32.6688 26.7911 32.6125 26.737C32.5563 26.8828 32.4917 27.062 32.4646 27.1411C32.4396 27.2078 32.4229 27.2557 32.4167 27.2724C32.3917 27.337 32.3688 27.3745 32.3458 27.4182C32.3333 27.4411 32.3188 27.4641 32.3021 27.5036C32.0896 27.9682 31.8521 28.3266 31.5375 28.7557C31.2583 29.1453 30.9646 29.4766 30.6083 29.7995C30.0521 30.3099 29.4063 30.7474 28.7917 31.0286C27.3708 31.687 25.8229 31.9328 24.4375 31.7224C23.4729 31.5807 22.6917 31.337 22.1146 30.9995L21.2229 30.4828C20.6604 30.1245 20.0854 29.6057 19.7104 29.1224C19.6771 29.0807 19.6354 29.0224 19.5896 28.9557C19.5375 28.8807 19.4417 28.7474 19.3583 28.6432L19.3354 28.6766C19.1104 28.9932 18.8438 29.287 18.4688 29.6307C18.4104 29.6828 18.3583 29.7203 18.3083 29.7578C18.2813 29.7766 18.2542 29.7974 18.2208 29.8224C17.7313 30.1974 17.1271 30.4786 16.475 30.6328C16.2396 30.687 16.0958 30.7078 16.0083 30.7182C16 30.7203 15.9917 30.7203 15.9833 30.7224C15.9792 30.7286 15.975 30.7349 15.9708 30.7432C15.925 30.8224 15.85 30.9516 15.7021 31.1578C15.6396 31.987 14.7708 33.3932 13.3979 33.9474C13.05 34.087 12.6375 34.1891 12.1646 34.1891C11.2375 34.1891 10.0896 33.7932 8.79375 32.5266L8.60833 32.8057L8.61875 32.4328C8.54583 32.4411 8.47083 32.4578 8.38333 32.4828C8.35208 32.4911 8.31875 32.5016 8.28542 32.5099C7.47708 32.7224 6.275 32.4766 5.43958 32.1391C4.91667 31.9245 4.25 31.4036 3.90833 31.0224L3.89167 31.0036L3.3125 30.2266C2.83958 29.4953 2.59375 28.537 2.6125 27.5161C2.6125 27.4974 2.61042 27.4911 2.61042 27.4911C2.6 27.4724 2.53333 27.4266 2.48542 27.3932C2.40417 27.3349 2.30417 27.2641 2.18542 27.1536L2.16458 27.1349L1.34583 26.2016C1.17083 25.9641 0.929166 25.5349 0.841667 25.2599L0.814583 25.1703C0.716667 24.8557 0.633334 24.5828 0.56875 24.2141C0.4375 23.4474 0.575 22.3516 0.885417 21.6641C1.30833 20.7391 1.62292 20.4161 1.83333 20.2016C1.86458 20.1682 1.89375 20.1391 1.91667 20.1141C1.89167 20.0995 1.86458 20.087 1.84583 20.0766C1.79167 20.0495 1.73958 20.0224 1.70208 19.9974C1.54167 19.8828 1.39583 19.7474 1.26667 19.5932C0.460417 18.9078 0 17.9057 0 16.8391C0 15.6016 0.620834 14.4641 1.6625 13.7932C1.73125 13.7182 1.81042 13.6432 1.9 13.5724C1.975 13.5099 2.0125 13.4891 2.06875 13.462C2.07917 13.4557 2.09167 13.4495 2.10833 13.4411C2.04167 12.0432 2.68333 10.4057 3.84375 9.02656C4.49167 8.25781 5.25833 7.6224 6.06667 7.18906C6.07708 7.16823 6.0875 7.1474 6.09792 7.12448C6.325 6.68073 6.60833 6.30573 6.94167 6.00156C7.41042 4.82656 8.45 3.97656 9.68125 3.76198C9.98958 3.5099 10.3813 3.38698 10.7771 3.41823C11.5354 2.2599 12.9771 1.30365 14.675 0.841146C16.0292 0.474479 17.4 0.455729 18.5479 0.789063C18.6125 0.770313 18.7125 0.741146 18.8792 0.699479C18.9771 0.674479 19.0792 0.653646 19.1896 0.634896C20.425 -0.210938 22.075 -0.213021 23.3146 0.636979C23.3646 0.67448 23.425 0.718229 23.4875 0.768229C24.6792 0.172396 26.0813 0.266146 27.1813 1.03073C27.4208 1.19115 27.6438 1.38698 27.8396 1.6099L27.8521 1.59948L27.8542 1.6099C28.9958 1.13281 30.3083 1.26198 31.3292 1.96406C31.8458 2.32448 32.2583 2.80365 32.5292 3.3599C33.7896 3.23073 35.2563 3.58073 36.5896 4.32865C38.4604 5.37656 39.7229 6.98281 39.9188 8.5099L40.0229 8.43698L39.9458 8.67656C40.3625 8.78073 40.7563 8.9599 41.1146 9.2099C42.475 10.1453 43.025 11.8995 42.4667 13.437C42.5875 13.5036 42.6896 13.5682 42.7833 13.637C44.1729 14.5953 44.7104 16.3557 44.0979 17.9328C44.1063 18.0766 44.1042 18.2182 44.0938 18.3661C44.0896 18.462 44.0792 18.5286 44.0708 18.5807C44.0604 18.6557 44.0604 18.6557 44.0979 18.7474C44.3458 19.3286 44.6583 20.2245 44.7167 20.8266C44.7854 21.5682 44.775 22.1411 44.6771 22.8057ZM32.0854 10.6682L34.5917 11.1036C34.6 10.9786 34.6188 10.8578 34.6542 10.7432L32.1458 10.3078C32.1396 10.4328 32.1188 10.5536 32.0854 10.6682ZM20.9688 10.2974L28.8438 10.3745C28.8375 10.3182 28.8354 10.2641 28.8354 10.2078C28.8354 10.1391 28.8396 10.0745 28.8479 10.0078L20.9729 9.93073C20.9792 9.9849 20.9813 10.0411 20.9813 10.0974C20.9813 10.1641 20.9771 10.2307 20.9688 10.2974ZM30.4979 11.9557C31.4583 11.9557 32.2396 11.1745 32.2396 10.2057C32.2396 9.24531 31.4583 8.46406 30.4979 8.46406C29.5292 8.46406 28.7458 9.24531 28.7458 10.2057C28.7458 11.1745 29.5292 11.9557 30.4979 11.9557ZM10.9188 12.9078C11.6146 12.9078 12.1833 12.3432 12.1833 11.6495C12.1833 10.9536 11.6146 10.3849 10.9188 10.3849C10.225 10.3849 9.65625 10.9536 9.65625 11.6495C9.65625 12.3432 10.225 12.9078 10.9188 12.9078ZM10.9188 13.3036C11.8333 13.3036 12.5813 12.562 12.5813 11.6495C12.5813 10.7349 11.8333 9.98698 10.9188 9.98698C10.0063 9.98698 9.2625 10.7349 9.2625 11.6495C9.2625 12.562 10.0063 13.3036 10.9188 13.3036ZM19.3271 11.8224C18.3792 11.8224 17.6 11.0453 17.6 10.0974C17.6 9.1474 18.3792 8.37865 19.3271 8.37865C20.275 8.37865 21.0458 9.1474 21.0458 10.0974C21.0458 11.0453 20.275 11.8224 19.3271 11.8224Z" fill="#88C0D0"/>
</svg>
